<svg xmlns="http://www.w3.org/2000/svg" data-name="Filled Outline" viewBox="0 0 128 128" id="muslim-doctor"><path fill="#d6d9f2" d="M96.163,101.655H32.083c-7.228,5.563-10.518,15.715-11.368,21.579a2,2,0,0,0,1.983,2.278h82.851a2,2,0,0,0,1.983-2.278C106.681,117.37,103.391,107.218,96.163,101.655Z"></path><path fill="#4d4263" d="M96.468,67.726c8.239-29.249-1.9-63.608-32.345-63.608S23.539,38.477,31.779,67.726C37.2,86.97,24.416,89.552,28.185,101.56c3.161,10.073,27.261,17.706,35.938,17.706s32.777-7.633,35.939-17.706C103.831,89.552,91.047,86.97,96.468,67.726Z"></path><path fill="#ff9595" d="M81.4,30.354c-4.139-6.143-9.384-9.865-17.279-9.865s-13.14,3.722-17.279,9.865c-6.765,10.039-7.975,22.6-4.108,34.068,1.745,5.179,4.307,8.952,7.567,11.439,4.29,3.274,10.314,6.068,13.82,6.068s9.53-2.794,13.821-6.068c3.26-2.487,5.821-6.26,7.567-11.439C89.378,52.95,88.168,40.393,81.4,30.354Z"></path><path fill="#f0f1ff" d="M84.933,60.61a7.432,7.432,0,0,0-3.755-5.721c-3.944-2.135-10.322-3.736-17.055-3.736s-13.111,1.6-17.054,3.736a7.433,7.433,0,0,0-3.756,5.721A18.619,18.619,0,0,0,48.1,74.6c4.712,4.929,11.58,8.258,16.019,8.258S75.43,79.524,80.143,74.6A18.618,18.618,0,0,0,84.933,60.61Z"></path><circle cx="51.281" cy="48.164" r="2.893" fill="#473049"></circle><path fill="#473049" d="M55.114,46.878c-.9-.206-1.7-.451-2.473-.644a10.62,10.62,0,0,0-2.235-.344,6.956,6.956,0,0,0-2.127.235,17.91,17.91,0,0,1-2.22.594l-.08.013a.916.916,0,0,1-.869-1.466,4.966,4.966,0,0,1,2.419-1.607,8.474,8.474,0,0,1,2.957-.441,15.991,15.991,0,0,1,5.292,1.337l.031.011a1.21,1.21,0,0,1-.7,2.312Z"></path><path fill="#473049" d="M55.958,43.228a22.716,22.716,0,0,0-3.586-1.255,20.561,20.561,0,0,0-3.74-.58,14.388,14.388,0,0,0-3.708.282,8.672,8.672,0,0,0-1.68.573,3.338,3.338,0,0,0-1.2.893,1.027,1.027,0,1,1-1.686-1.174c.013-.019.027-.037.041-.055l.013-.016a5.235,5.235,0,0,1,1.982-1.444,10.609,10.609,0,0,1,2.087-.711,17.652,17.652,0,0,1,4.216-.425,25.318,25.318,0,0,1,4.163.416,34.158,34.158,0,0,1,4.051,1.022,1.328,1.328,0,0,1-.773,2.54A1.262,1.262,0,0,1,56,43.245Z"></path><circle cx="76.965" cy="48.164" r="2.893" fill="#473049"></circle><path fill="#473049" d="M72.469,44.555a15.985,15.985,0,0,1,5.291-1.337,8.483,8.483,0,0,1,2.958.441,4.975,4.975,0,0,1,2.419,1.607.916.916,0,0,1-.867,1.466l-.083-.013a17.957,17.957,0,0,1-2.22-.594,6.953,6.953,0,0,0-2.126-.235,10.61,10.61,0,0,0-2.235.344c-.772.193-1.571.438-2.474.644a1.21,1.21,0,0,1-.7-2.312Z"></path><path fill="#473049" d="M71.341,40.754a34.142,34.142,0,0,1,4.05-1.022,25.328,25.328,0,0,1,4.163-.416,17.652,17.652,0,0,1,4.216.425,10.565,10.565,0,0,1,2.087.711A5.238,5.238,0,0,1,87.84,41.9l.011.014a1.027,1.027,0,1,1-1.6,1.287c-.015-.018-.03-.038-.043-.056a3.324,3.324,0,0,0-1.2-.893,8.7,8.7,0,0,0-1.68-.573,14.392,14.392,0,0,0-3.709-.282,20.564,20.564,0,0,0-3.739.58,22.681,22.681,0,0,0-3.586,1.255l-.04.017A1.327,1.327,0,0,1,71.206,40.8,1.373,1.373,0,0,1,71.341,40.754Z"></path><path fill="#473049" d="M109.016,123.02c-.823-5.676-3.481-13.429-8.357-19.1a10.369,10.369,0,0,0,.834-1.909c1.857-5.917.067-9.772-1.829-13.852-2.263-4.872-4.6-9.909-1.752-20.026,5.427-19.268,2.8-39.817-6.688-52.35C84.7,7.17,75.332,2.618,64.123,2.618s-20.58,4.552-27.1,13.164c-9.49,12.533-12.115,33.082-6.687,52.35,2.85,10.117.51,15.154-1.752,20.026-1.9,4.08-3.686,7.935-1.829,13.852a10.34,10.34,0,0,0,.831,1.9c-4.876,5.673-7.532,13.43-8.355,19.105a3.5,3.5,0,0,0,3.467,3.993h82.852a3.5,3.5,0,0,0,3.467-3.992ZM31.3,89.422c2.259-4.864,5.071-10.917,1.92-22.1C28.04,48.923,30.47,29.4,39.414,17.594,45.346,9.759,53.89,5.618,64.123,5.618S82.9,9.759,88.833,17.594c8.943,11.81,11.373,31.329,6.191,49.724-3.151,11.187-.34,17.24,1.919,22.1,1.786,3.845,3.2,6.882,1.687,11.689-2.909,9.27-26.254,16.656-34.507,16.656s-31.6-7.386-34.507-16.656C28.107,96.3,29.518,93.267,31.3,89.422Zm74.631,34.415a.5.5,0,0,1-.385.175H22.7a.5.5,0,0,1-.384-.175.477.477,0,0,1-.114-.388A36.794,36.794,0,0,1,29.38,106.42c7.441,8.507,26.682,14.347,34.743,14.347s27.266-5.829,34.722-14.323a36.751,36.751,0,0,1,7.2,17.006A.472.472,0,0,1,105.934,123.837Z"></path><path fill="#473049" d="M83.834 18.5a1.5 1.5 0 0 0-2.344 1.873c10.2 12.763 9.8 24.107 7.7 31.343a38.73 38.73 0 0 0-6.547-22.2c-4.839-7.182-10.725-10.527-18.523-10.527S50.439 22.334 45.6 29.516A38.712 38.712 0 0 0 39.046 51.36c-1.989-7.292-2.238-18.534 7.71-30.986A1.5 1.5 0 0 0 44.413 18.5c-17.49 21.89-5.675 40.671-4.081 43 .285 1.138 2.052 6.041 2.574 7.276a22.6 22.6 0 0 0 4.114 6.859c4.832 5.054 12.025 8.722 17.1 8.722s12.272-3.668 17.1-8.723a22.705 22.705 0 0 0 4.281-7.347c.443-1.115 2.12-5.649 2.405-6.787C89.509 59.172 101.324 40.391 83.834 18.5zM79.059 73.558c-4.842 5.063-11.309 7.8-14.936 7.8s-10.094-2.733-14.935-7.8A17.069 17.069 0 0 1 44.8 60.794a5.913 5.913 0 0 1 2.981-4.586c4.051-2.193 10.312-3.556 16.34-3.556s12.29 1.363 16.34 3.556a5.91 5.91 0 0 1 2.981 4.585h0A17.07 17.07 0 0 1 79.059 73.558zm6.6-15.844a8.717 8.717 0 0 0-3.763-4.145c-4.463-2.416-11.272-3.917-17.769-3.917s-13.305 1.5-17.769 3.917a8.711 8.711 0 0 0-3.762 4.145 36.29 36.29 0 0 1 5.5-26.523c4.289-6.364 9.234-9.2 16.035-9.2s11.747 2.838 16.035 9.2A36.29 36.29 0 0 1 85.655 57.714zM62.1 99.028a26.278 26.278 0 0 1-5.021-.5c-8.136-1.59-14.656-6.507-17.89-13.491a1.5 1.5 0 0 1 2.723-1.26c4.011 8.662 12.345 11.143 15.742 11.807 5.675 1.11 10-.015 11.623-1.527a1.5 1.5 0 0 1 2.047 2.193C69.394 98.054 66.017 99.028 62.1 99.028zM69.12 105.857a1.5 1.5 0 0 1 0-3c6.908 0 14.765-4.591 16.484-9.634a1.5 1.5 0 1 1 2.839.968C86.325 100.406 77.3 105.857 69.12 105.857z"></path></svg>